<?xml version="1.0" encoding="UTF-8" standalone="no"?>
<!-- Generator: Adobe Illustrator 15.0.2, SVG Export Plug-In  -->

<svg
   xmlns:dc="http://purl.org/dc/elements/1.1/"
   xmlns:cc="http://creativecommons.org/ns#"
   xmlns:rdf="http://www.w3.org/1999/02/22-rdf-syntax-ns#"
   xmlns:svg="http://www.w3.org/2000/svg"
   xmlns="http://www.w3.org/2000/svg"
   xmlns:sodipodi="http://sodipodi.sourceforge.net/DTD/sodipodi-0.dtd"
   xmlns:inkscape="http://www.inkscape.org/namespaces/inkscape"
   version="1.1"
   x="0px"
   y="0px"
   width="256px"
   height="256px"
   viewBox="-0.567 -0.567 256 256"
   overflow="visible"
   enable-background="new -0.567 -0.567 256 256"
   xml:space="preserve"
   id="svg18"
   sodipodi:docname="marche.svg"
   inkscape:version="0.92.4 (5da689c313, 2019-01-14)"
   inkscape:export-filename="/home/peppe/Documenti/pp-signets/marche.png"
   inkscape:export-xdpi="96"
   inkscape:export-ydpi="96"><metadata
   id="metadata22"><rdf:RDF><cc:Work
       rdf:about=""><dc:format>image/svg+xml</dc:format><dc:type
         rdf:resource="http://purl.org/dc/dcmitype/StillImage" /><dc:title></dc:title></cc:Work></rdf:RDF></metadata><sodipodi:namedview
   pagecolor="#ffffff"
   bordercolor="#666666"
   borderopacity="1"
   objecttolerance="10"
   gridtolerance="10"
   guidetolerance="10"
   inkscape:pageopacity="0"
   inkscape:pageshadow="2"
   inkscape:window-width="1920"
   inkscape:window-height="1016"
   id="namedview20"
   showgrid="false"
   showguides="false"
   inkscape:zoom="2.9818756"
   inkscape:cx="128.42367"
   inkscape:cy="128.79699"
   inkscape:window-x="0"
   inkscape:window-y="27"
   inkscape:window-maximized="1"
   inkscape:current-layer="svg18" />
<defs
   id="defs2">
</defs>
<path
   fill="#FFFFFF"
   d="M0,127.559C0,57.11,57.11,0,127.561,0c70.447,0,127.557,57.11,127.557,127.559  c0,70.452-57.11,127.56-127.557,127.56C57.11,255.118,0,198.011,0,127.559z"
   id="path4" />
<g
   id="g10"
   style="fill:#019903;fill-opacity:1">
	<g
   id="g8"
   style="fill:#019903;fill-opacity:1">
		<path
   d="M127.561,8.504C61.805,8.504,8.503,61.806,8.503,127.56c0,65.752,53.302,119.052,119.058,119.055    c65.75,0,119.052-53.303,119.052-119.055C246.613,61.806,193.311,8.504,127.561,8.504z M127.561,229.606    c-56.357,0-102.048-45.688-102.048-102.045c0-56.361,45.691-102.048,102.048-102.048c56.362,0,102.046,45.688,102.046,102.048    C229.606,183.919,183.923,229.606,127.561,229.606z"
   id="path6"
   style="fill:#019903;fill-opacity:1" />
	</g>
</g>
<g
   id="g16">
	<g
   id="g14">
		<path
   d="M126.265,55.796c-14.248,0-25.147,1.39-33.31,3.194V43.104h-10.31v18.797c-7.486,2.666-10.512,5.196-10.512,5.196    s4.312-0.361,10.512,0.131v97.745c-2.418,4.448-3.968,9.744-3.968,16.141c0,17.646,8.528,33.511,8.528,33.511    s-2.579-9.919-2.532-16.853c0.152-22.449,9.336-34.371,48.93-40.852c16.963-2.775,69.205-6.346,68.804-45.406    C202.168,87.927,187.54,55.796,126.265,55.796z M105.247,144.826c-3.504,2.151-7.999,4.748-12.292,8.21V68.734    c15.4,3.365,33.708,12.898,33.707,39.21C126.663,118.607,125.275,132.532,105.247,144.826z"
   id="path12" />
	</g>
</g>
<path
   style="stroke:#000000;stroke-width:0.01377711;fill:#000000"
   inkscape:connector-curvature="0"
   id="path3"
   d="m 82.960957,115.38663 c 0,0 -1.21321,1.482 -1.66117,2.31039 0.329,1.74049 0.40244,3.51477 0.38775,5.28318 -0.022,1.905 0.35103,3.80853 0.12043,5.71353 -0.30844,3.09031 -0.93561,6.2188 -2.4176,8.9801 -0.47736,0.94736 -1.23966,1.70231 -1.81541,2.58504 -0.67565,1.01933 -1.28812,2.08566 -1.76987,3.20927 -0.32021,0.97527 -0.13661,2.02397 0.0235,3.01246 0.27025,1.54221 0.80489,3.02274 1.08102,4.56348 0.42153,2.17232 0.58751,4.39017 0.54932,6.60215 -0.12485,3.57206 -0.11457,7.14853 -0.15276,10.72206 -0.0705,1.73756 -0.16156,3.50596 -0.69619,5.17449 -0.24529,0.71823 -0.68152,1.54074 -1.51283,1.66412 -0.75056,0.22032 -1.54956,-0.0764 -2.07978,-0.61982 -0.95471,-0.96792 -1.46584,-2.26191 -1.9241,-3.51625 -1.07956,-3.33412 -2.01224,-6.71524 -2.84356,-10.11986 -0.46559,1.61419 -0.85924,3.27096 -1.6465,4.76911 -0.33047,0.60955 -0.72409,1.22643 -1.3219,1.60538 -0.55079,0.34663 -1.26902,0.21444 -1.80365,-0.0925 -0.83425,-0.53904 -1.16915,-1.55102 -1.36595,-2.47488 -0.20416,-1.14271 -0.39951,-2.28982 -0.51113,-3.44575 -0.21152,-1.93731 -0.025,-3.88491 -0.0162,-5.82663 10e-4,-2.07538 0.24674,-4.14341 0.1733,-6.22026 -0.0191,-0.89302 -0.25997,-1.75813 -0.42301,-2.63058 -0.68884,-3.22396 -1.76253,-6.3877 -3.42223,-9.24594 -1.46438,-2.49838 -2.51309,-5.22149 -3.27979,-8.00923 -0.58751,-2.09888 -0.9547,-4.25063 -1.40121,-6.38182 -0.60806,-2.86999 -1.06486,-5.76935 -1.44674,-8.67753 -0.36279,-3.12408 -0.2541,-6.28489 0.0602,-9.40897 -0.0514,-1.57893 -0.55079,-3.09912 -0.87686,-4.63545 -0.33635,-1.27931 -0.59192,-2.57917 -0.99436,-3.83938 -0.5361,-2.05775 -0.79314,-4.171319 -1.10158,-6.271669 -0.31726,-1.47612 -0.3011,-3.00365 -0.13072,-4.49739 0.0499,-0.51407 0.16891,-1.0252 0.13808,-1.54368 -0.36134,0.54198 -0.33195,1.2558 -0.74027,1.78015 -0.047,-0.8842 0.12338,-1.79337 0.57136,-2.56595 0.25703,-0.43182 0.48029,-0.882731 0.7006,-1.336581 -0.3525,0.35397 -0.66535,0.768171 -1.12803,0.987021 0.0911,-1.238181 0.91358,-2.248701 1.43646,-3.332661 0.8695,-1.8624 2.65113,-3.16521 4.5811,-3.77034 1.88298,-0.59926 3.88345,-0.75348 5.84867,-0.65948 1.28665,0.1836 2.65407,0.4656 3.65724,1.35274 0.94148,0.81811 1.88739,1.63034 2.82594,2.45286 0.54491,0.43035 1.28517,0.17184 1.89764,0.0499 1.84184,-0.50085 3.69691,-0.94883 5.55492,-1.39093 1.53781,-0.39069 3.12115,-0.69179 4.71624,-0.62423 0.48176,0.0118 0.94147,0.17773 1.35568,0.42154 -2.14148,1.6465 -4.62077,2.78039 -6.82101,4.34317 -1.25872,0.868051 -2.50278,1.790441 -3.47804,2.978681 -1.19999,1.11773 -1.63181,2.79361 -1.72875,4.37695 -0.12925,1.57452 -0.2541,3.27977 0.51701,4.72211 1.28958,2.057749 2.75101,3.999469 4.16838,5.970569 1.70525,2.38529 3.49275,4.72945 4.85722,7.33359 1.26315,2.29423 1.79632,4.88221 2.67613,7.32919 0.70353,-0.6962 2.05041,-2.14735 2.05041,-2.14735 z"
   sodipodi:nodetypes="cccccccccccccccccccccccccccccccccccccccccccccccccccccccc" /></svg>