<?xml version="1.0" encoding="UTF-8" standalone="no"?>
<svg
   xmlns:osb="http://www.openswatchbook.org/uri/2009/osb"
   xmlns:dc="http://purl.org/dc/elements/1.1/"
   xmlns:cc="http://creativecommons.org/ns#"
   xmlns:rdf="http://www.w3.org/1999/02/22-rdf-syntax-ns#"
   xmlns:svg="http://www.w3.org/2000/svg"
   xmlns="http://www.w3.org/2000/svg"
   xmlns:xlink="http://www.w3.org/1999/xlink"
   xmlns:sodipodi="http://sodipodi.sourceforge.net/DTD/sodipodi-0.dtd"
   xmlns:inkscape="http://www.inkscape.org/namespaces/inkscape"
   version="1.1"
   x="0px"
   y="0px"
   width="1024"
   height="1024"
   viewBox="0 0 1024 1024"
   enable-background="new 0 0 410 432.17099"
   xml:space="preserve"
   id="svg853"
   sodipodi:docname="pirati.dyuthi.rainbow.white.svg"
   inkscape:version="0.92.4 (5da689c313, 2019-01-14)"
   inkscape:export-filename="/home/peppe/dyuthi-pp.png"
   inkscape:export-xdpi="96"
   inkscape:export-ydpi="96"><metadata
   id="metadata859"><rdf:RDF><cc:Work
       rdf:about=""><dc:format>image/svg+xml</dc:format><dc:type
         rdf:resource="http://purl.org/dc/dcmitype/StillImage" /><dc:title></dc:title></cc:Work></rdf:RDF></metadata><defs
   id="defs857"><linearGradient
   id="linearGradient2451"
   osb:paint="solid"><stop
     style="stop-color:#ffffff;stop-opacity:1;"
     offset="0"
     id="stop2449" /></linearGradient><linearGradient
   id="linearGradient2399"
   osb:paint="solid"><stop
     style="stop-color:#000000;stop-opacity:1;"
     offset="0"
     id="stop2397" /></linearGradient>
        
        
        
    
            
            
            
            
        <linearGradient
   inkscape:collect="always"
   xlink:href="#linearGradient2451"
   id="linearGradient2453"
   x1="440.94097"
   y1="791.88155"
   x2="792.72382"
   y2="791.88155"
   gradientUnits="userSpaceOnUse" /><clipPath
   clipPathUnits="userSpaceOnUse"
   id="clipPath864"><use
     x="0"
     y="0"
     xlink:href="#g860"
     id="use866"
     width="100%"
     height="100%" /></clipPath><mask
   maskUnits="userSpaceOnUse"
   id="mask926"><circle
     style="opacity:1;fill:#ffffff;fill-opacity:1;stroke:none;stroke-width:25.64528275;stroke-miterlimit:4;stroke-dasharray:none;stroke-opacity:0.5125;paint-order:fill markers stroke"
     id="circle928"
     cx="512"
     cy="512"
     r="512" /></mask></defs><sodipodi:namedview
   pagecolor="#ffffff"
   bordercolor="#666666"
   borderopacity="1"
   objecttolerance="10"
   gridtolerance="10"
   guidetolerance="10"
   inkscape:pageopacity="0"
   inkscape:pageshadow="2"
   inkscape:window-width="1920"
   inkscape:window-height="1016"
   id="namedview855"
   showgrid="false"
   inkscape:pagecheckerboard="true"
   inkscape:zoom="0.39928122"
   inkscape:cx="-174.14647"
   inkscape:cy="276.43425"
   inkscape:window-x="0"
   inkscape:window-y="27"
   inkscape:window-maximized="1"
   inkscape:current-layer="svg853"
   inkscape:snap-grids="false"
   inkscape:snap-text-baseline="true" />
    <circle
   style="fill:#ffffff;fill-opacity:1;stroke:none;stroke-width:10.51628685;stroke-miterlimit:4;stroke-dasharray:none;stroke-opacity:0.5125;paint-order:fill markers stroke"
   id="path882"
   cx="512"
   cy="512"
   inkscape:export-filename="/home/peppe/text906.png"
   inkscape:export-xdpi="96"
   inkscape:export-ydpi="96"
   r="512" /><g
   id="g862"
   clip-path="url(#clipPath864)"
   mask="url(#mask926)"
   transform="translate(6.95e-6,8e-6)"><g
     inkscape:label="Clip"
     id="g860"><g
       transform="scale(1.3178893,2.1333333)"
       id="g909"><rect
         style="fill:#750787"
         y="0"
         x="0"
         width="777"
         height="480"
         id="rect883" /><rect
         style="fill:#004dff"
         y="0"
         x="0"
         width="777"
         height="400"
         id="rect885" /><rect
         style="fill:#008026"
         y="0"
         x="0"
         width="777"
         height="320"
         id="rect887" /><rect
         style="fill:#ffed00"
         y="0"
         x="0"
         width="777"
         height="240"
         id="rect889" /><rect
         style="fill:#ff8c00"
         y="0"
         x="0"
         width="777"
         height="160"
         id="rect891" /><rect
         style="fill:#e40303"
         y="0"
         x="0"
         width="777"
         height="80"
         id="rect893" /></g></g></g><g
   transform="translate(0,428.71901)"
   id="g815" />
    
<g
   aria-label="pirati"
   transform="matrix(0.97812723,0,0,0.97500024,12.000003,11.999909)"
   style="font-style:normal;font-variant:normal;font-weight:normal;font-stretch:normal;font-size:193.03443909px;line-height:1.25;font-family:'Bebas Neue';-inkscape-font-specification:'Bebas Neue, Normal';font-variant-ligatures:normal;font-variant-caps:normal;font-variant-numeric:normal;font-feature-settings:normal;text-align:start;letter-spacing:0px;word-spacing:0px;writing-mode:lr-tb;text-anchor:start;opacity:1;fill:#ff6600;fill-opacity:1;stroke:none;stroke-width:2.91832924;stroke-miterlimit:4;stroke-dasharray:none;stroke-opacity:1"
   id="text906"><g
   aria-label="partito pirata"
   transform="scale(1.0004456,0.99955459)"
   style="font-style:normal;font-variant:normal;font-weight:normal;font-stretch:normal;font-size:150.58305359px;line-height:1.25;font-family:Dyuthi;-inkscape-font-specification:'Dyuthi, Normal';font-variant-ligatures:normal;font-variant-caps:normal;font-variant-numeric:normal;font-feature-settings:normal;text-align:start;letter-spacing:0px;word-spacing:0px;writing-mode:lr-tb;text-anchor:start;fill:#ffffff;fill-opacity:1;stroke:none;stroke-width:10.98587513"
   id="text822"><path
     id="path907"
     style="font-style:normal;font-variant:normal;font-weight:normal;font-stretch:normal;font-size:150.58305359px;font-family:Dyuthi;-inkscape-font-specification:'Dyuthi, Normal';font-variant-ligatures:normal;font-variant-caps:normal;font-variant-numeric:normal;font-feature-settings:normal;text-align:start;writing-mode:lr-tb;text-anchor:start;stroke-width:10.98587513"
     d="m 722.9657,882.12309 q 0,0 0,4.85277 0,7.6468 4.04397,13.01426 4.04398,5.36746 9.77908,5.22041 3.38224,0.36763 6.838,-0.66174 6.98505,-2.42639 6.98505,-10.58787 0,0 0,-24.85209 -1.32348,-4.19103 -7.64679,-6.54389 -6.32331,-2.42639 -13.16131,0.80879 -6.838,3.16166 -6.838,18.74936 z m -10.73493,25.36677 q -9.41144,-9.92613 -9.41144,-23.96976 0,-14.11716 9.41144,-24.04329 9.41144,-9.92613 22.79333,-9.92613 11.24962,0 15.5877,9.92613 0,-3.23519 2.42639,-5.66157 2.13228,-2.13228 5.36746,-2.13228 h 5.66157 q 3.23519,0 5.51452,2.13228 2.27933,2.42638 2.27933,5.66157 v 53.67462 q 0,1.9117 -1.32348,3.08813 -1.24996,1.17643 -3.0146,1.17643 h -8.82323 q -1.9117,0 -4.41161,-2.64697 -2.49992,-2.64696 -4.48514,-2.94107 -1.98523,-0.29411 -3.74987,0.88232 -7.27916,4.70572 -11.02904,4.70572 -13.38189,0 -22.79333,-9.92613 z m -30.07251,-21.98454 q 0,11.24962 6.17626,14.4848 4.77925,2.64697 2.27934,9.92613 -2.49992,7.49974 -7.94091,7.49974 -8.82322,0 -14.19069,-10.44082 -4.55866,-8.97028 -4.55866,-22.79333 v -18.01409 h -2.64697 q -3.0146,0 -4.99983,-1.91169 -2.05875,-1.83818 -1.98522,-4.92631 v -0.14705 q 0,-2.86755 1.98522,-4.9263 1.98523,-2.05875 4.99983,-2.05875 h 2.64697 v -7.49975 q 0,-5.14688 4.04398,-8.16148 2.2058,-1.76464 6.24978,-1.76464 h 0.29411 q 2.49991,0 5.07335,3.23518 2.57344,3.23518 2.57344,6.69094 v 7.49975 h 6.17626 q 2.7205,0 4.77925,2.13228 2.05875,2.13228 2.05875,4.85277 v 0.14705 q 0,3.16166 -1.98522,4.99983 -1.98523,1.83817 -4.85278,1.83817 h -6.17626 z m -84.18828,-3.38223 q 0,0 0,4.85277 0,7.6468 4.04398,13.01426 4.04398,5.36746 9.77908,5.22041 3.38223,0.36763 6.838,-0.66174 6.98505,-2.42639 6.98505,-10.58787 0,0 0,-24.85209 -1.32348,-4.19103 -7.64679,-6.54389 -6.32332,-2.42639 -13.16132,0.80879 -6.838,3.16166 -6.838,18.74936 z m -10.73492,25.36677 q -9.41144,-9.92613 -9.41144,-23.96976 0,-14.11716 9.41144,-24.04329 9.41144,-9.92613 22.79333,-9.92613 11.24962,0 15.5877,9.92613 0,-3.23519 2.42639,-5.66157 2.13228,-2.13228 5.36746,-2.13228 h 5.66157 q 3.23518,0 5.51452,2.13228 2.27933,2.42638 2.27933,5.66157 v 53.67462 q 0,1.9117 -1.32348,3.08813 -1.24996,1.17643 -3.01461,1.17643 h -8.82322 q -1.9117,0 -4.41161,-2.64697 -2.49992,-2.64696 -4.48514,-2.94107 -1.98523,-0.29411 -3.74988,0.88232 -7.27916,4.70572 -11.02903,4.70572 -13.38189,0 -22.79333,-9.92613 z m -36.46934,-54.85105 q 4.26456,-3.0146 15.51418,-3.0146 2.05875,0 3.16165,1.47053 1.1029,1.47054 0.73527,3.23519 l -1.47054,6.838 q -1.02937,6.54389 -5.07335,5.95567 -6.76448,-1.1029 -12.05841,2.64697 -5.29394,3.74987 -5.36746,8.60265 v 0.14705 H 546.06 v 28.4549 q 0,4.11751 -3.0146,7.20564 -3.0146,3.08813 -7.35269,3.08813 h -0.22058 q -4.26456,0 -7.27916,-2.94108 -2.94107,-3.0146 -2.94107,-7.35269 V 860.2856 q 0,-4.26456 3.08812,-7.35268 3.08813,-3.01461 7.27917,-3.01461 h 0.36763 q 5.36746,0 10.36729,7.6468 2.27933,-3.45576 4.41161,-4.9263 z m -45.80724,64.77718 q -4.55867,0 -7.79385,-3.16166 -3.16166,-3.23518 -3.16166,-7.79384 v -43.38087 q 0,-4.55866 3.23519,-7.79384 3.30871,-3.23519 7.72032,-3.23519 h 0.14705 q 4.41162,0 7.6468,3.23519 3.23518,3.23518 3.23518,7.79384 v 43.38087 q 0,4.55866 -3.23518,7.79384 -3.23518,3.23519 -7.6468,3.16166 z m 10.14671,-82.79127 q 0,4.77925 -3.38224,8.08796 -3.30871,3.30871 -7.9409,3.30871 -4.70572,0 -7.9409,-3.30871 -3.23519,-3.30871 -3.30871,-8.08796 0,-4.77925 3.30871,-8.01443 3.23518,-3.30871 7.9409,-3.23518 4.55867,0 7.9409,3.16165 3.38224,3.23519 3.38224,8.08796 z m -50.14534,53.82168 q 0,0 0,-8.82323 0,-7.49974 -4.04398,-12.8672 -3.97045,-5.44099 -9.77907,-5.44099 -3.38224,-0.51469 -6.838,0.73527 -6.98505,2.27933 -6.98505,10.58787 0,0 0,24.92561 1.32348,4.26456 7.64679,6.61742 6.32331,2.27934 13.01426,-0.95585 3.23518,-1.32348 5.14688,-5.51451 1.83817,-4.19104 1.83817,-9.26439 z m -12.05841,28.74901 q -8.38206,0 -15.58769,-4.33809 v 22.94039 q 0,4.26456 -3.16166,7.49974 -3.0146,3.0146 -7.27916,2.94108 h -0.29411 q -4.63219,0 -7.49974,-2.94108 -2.94108,-2.94107 -2.94108,-7.49974 v -82.20305 q 0,-1.69112 1.17643,-3.0146 1.17643,-1.32349 3.08813,-1.32349 h 12.64663 q 1.83817,0 3.08813,1.39701 1.24995,1.39701 1.17643,2.94108 7.20563,-4.33809 15.58769,-4.33809 13.45542,0 22.79334,9.92613 9.33791,9.92613 9.41144,24.04329 0,14.11716 -9.41144,24.04329 -9.33792,9.92613 -22.79334,9.92613 z m 332.04741,-148.2918 q 6.02921,0 10.88198,-5.51452 3.89693,-4.48514 3.89693,-21.91101 -0.0735,-8.7497 -4.11751,-13.23484 -4.1175,-4.48514 -10.6614,-4.48514 -5.66157,0 -9.8526,4.70572 -4.99983,5.58805 -4.99983,13.01426 0.0735,16.47002 4.99983,21.91101 4.9263,5.44099 9.8526,5.51452 z m 25.07267,-47.42484 q 10.36729,10.29376 10.36729,24.85209 0,14.55832 -10.51434,24.92561 -10.44082,10.29376 -22.94039,10.22023 -1.02938,0.0735 -1.98523,0 -14.11716,0.58822 -24.77855,-9.99965 -10.58788,-10.58787 -10.58788,-25.21972 0.0735,-14.70538 10.29377,-24.92561 10.29376,-10.22024 23.01391,-10.14671 0.95585,-0.0735 1.98523,-0.0735 14.7789,0 25.14619,10.36729 z m -80.21782,27.27847 q 0,11.24962 6.17625,14.4848 4.77925,2.64697 2.27934,9.92613 -2.49992,7.49974 -7.94091,7.49974 -8.82322,0 -14.19068,-10.44082 -4.55867,-8.97028 -4.55867,-22.79333 v -18.01409 h -2.64697 q -3.0146,0 -4.99983,-1.9117 -2.05875,-1.83817 -1.98522,-4.9263 v -0.14705 q 0,-2.86755 1.98522,-4.9263 1.98523,-2.05875 4.99983,-2.05875 h 2.64697 v -7.49975 q 0,-5.14688 4.04398,-8.16148 2.2058,-1.76465 6.24978,-1.76465 h 0.29411 q 2.49991,0 5.07336,3.23519 2.57344,3.23518 2.57344,6.69094 v 7.49975 h 6.17625 q 2.7205,0 4.77925,2.13227 2.05875,2.13228 2.05875,4.85278 v 0.14705 q 0,3.16166 -1.98522,4.99983 -1.98523,1.83817 -4.85278,1.83817 h -6.17625 z m -46.32197,31.91067 q -4.55866,0 -7.79385,-3.16166 -3.16165,-3.23518 -3.16165,-7.79385 v -43.38086 q 0,-4.55866 3.23518,-7.79385 3.30871,-3.23518 7.72032,-3.23518 h 0.14706 q 4.41161,0 7.64679,3.23518 3.23519,3.23519 3.23519,7.79385 v 43.38086 q 0,4.55867 -3.23519,7.79385 -3.23518,3.23519 -7.64679,3.16166 z m 10.14671,-82.79127 q 0,4.77925 -3.38223,8.08796 -3.30871,3.30871 -7.94091,3.30871 -4.70572,0 -7.9409,-3.30871 -3.23518,-3.30871 -3.30871,-8.08796 0,-4.77925 3.30871,-8.01443 3.23518,-3.30871 7.9409,-3.23518 4.55867,0 7.94091,3.16165 3.38223,3.23519 3.38223,8.08796 z m -42.35146,50.8806 q 0,11.24962 6.17626,14.4848 4.77924,2.64697 2.27933,9.92613 -2.49991,7.49974 -7.9409,7.49974 -8.82323,0 -14.19069,-10.44082 -4.55867,-8.97028 -4.55867,-22.79333 v -18.01409 h -2.64697 q -3.0146,0 -4.99982,-1.9117 -2.05876,-1.83817 -1.98523,-4.9263 v -0.14705 q 0,-2.86755 1.98523,-4.9263 1.98522,-2.05875 4.99982,-2.05875 h 2.64697 v -7.49975 q 0,-5.14688 4.04398,-8.16148 2.20581,-1.76465 6.24979,-1.76465 h 0.2941 q 2.49992,0 5.07336,3.23519 2.57344,3.23518 2.57344,6.69094 v 7.49975 h 6.17626 q 2.72049,0 4.77924,2.13227 2.05876,2.13228 2.05876,4.85278 v 0.14705 q 0,3.16166 -1.98523,4.99983 -1.98523,1.83817 -4.85277,1.83817 h -6.17626 z m -54.04226,-32.86651 q 4.26456,-3.01461 15.51417,-3.01461 2.05875,0 3.16166,1.47054 1.1029,1.47054 0.73526,3.23518 l -1.47053,6.838 q -1.02938,6.5439 -5.07336,5.95568 -6.76447,-1.1029 -12.05841,2.64697 -5.29393,3.74987 -5.36746,8.60265 v 0.14705 H 592.529 v 28.4549 q 0,4.11751 -3.01461,7.20564 -3.0146,3.08813 -7.35268,3.08813 h -0.22058 q -4.26456,0 -7.27917,-2.94108 -2.94107,-3.0146 -2.94107,-7.35269 v -46.68957 q 0,-4.26456 3.08813,-7.35269 3.08813,-3.0146 7.27916,-3.0146 h 0.36763 q 5.36747,0 10.36729,7.6468 2.27934,-3.45577 4.41162,-4.9263 z m -83.6736,29.48428 q 0,0 0,4.85277 0,7.6468 4.04398,13.01426 4.04398,5.36746 9.77908,5.22041 3.38224,0.36763 6.838,-0.66174 6.98505,-2.42639 6.98505,-10.58788 0,0 0,-24.85208 -1.32348,-4.19103 -7.64679,-6.54389 -6.32332,-2.42639 -13.16132,0.80879 -6.838,3.16166 -6.838,18.74936 z m -10.73492,25.36677 q -9.41144,-9.92613 -9.41144,-23.96976 0,-14.11716 9.41144,-24.04329 9.41144,-9.92613 22.79333,-9.92613 11.24962,0 15.5877,9.92613 0,-3.23519 2.42639,-5.66157 2.13228,-2.13228 5.36746,-2.13228 h 5.66157 q 3.23518,0 5.51452,2.13228 2.27933,2.42638 2.27933,5.66157 v 53.67462 q 0,1.9117 -1.32348,3.08813 -1.24996,1.17643 -3.0146,1.17643 h -8.82323 q -1.9117,0 -4.41161,-2.64697 -2.49992,-2.64697 -4.48514,-2.94107 -1.98523,-0.29411 -3.74987,0.88232 -7.27917,4.70572 -11.02904,4.70572 -13.38189,0 -22.79333,-9.92613 z m -37.86635,-19.04346 q 0,0 0,-8.82323 0,-7.49974 -4.04398,-12.8672 -3.97045,-5.44099 -9.77907,-5.44099 -3.38224,-0.51469 -6.838,0.73527 -6.98505,2.27933 -6.98505,10.58787 0,0 0,24.92561 1.32348,4.26456 7.64679,6.61742 6.32331,2.27933 13.01426,-0.95585 3.23518,-1.32348 5.14688,-5.51451 1.83817,-4.19104 1.83817,-9.26439 z m -12.05841,28.74901 q -8.38206,0 -15.58769,-4.33809 v 22.94039 q 0,4.26456 -3.16166,7.49974 -3.0146,3.0146 -7.27916,2.94108 h -0.29411 q -4.63219,0 -7.49974,-2.94108 -2.94108,-2.94107 -2.94108,-7.49974 v -82.20305 q 0,-1.69112 1.17643,-3.01461 1.17643,-1.32348 3.08813,-1.32348 h 12.64663 q 1.83817,0 3.08813,1.39701 1.24995,1.39701 1.17643,2.94108 7.20563,-4.33809 15.58769,-4.33809 13.45542,0 22.79334,9.92613 9.33791,9.92613 9.41144,24.04329 0,14.11716 -9.41144,24.04329 -9.33792,9.92613 -22.79334,9.92613 z M 510.95928,9.454211e-5 C 228.76781,9.454211e-5 1.7991983e-5,229.71184 1.7991983e-5,513.06094 1.7991983e-5,796.4066 228.76781,1026.0979 510.95928,1026.0979 c 282.19143,0 510.94722,-229.6913 510.94722,-513.03696 C 1021.9065,229.71184 793.15071,9.454211e-5 510.95928,9.454211e-5 Z M 310.4192,134.62133 h 44.85073 v 72.07429 c 161.87781,-33.6684 484.53256,-35.32783 486.24406,245.54457 1.18432,198.30766 -348.7494,168.10437 -450.27536,232.41444 -110.32233,69.86259 -60.78653,217.58216 -60.78653,217.58216 0,0 -66.71045,-138.42612 -20.0329,-228.67325 v -433.2818 c -19.19185,-1.24009 -35.24171,0.0732 -45.3033,3.0194 -2.86066,-6.24953 14.70386,-15.95061 45.3033,-25.30386 z m 44.85073,112.57133 V 625.24132 C 402.67496,592.94613 483.98418,553.90993 499.71794,479.19211 531.29431,329.09432 436.20532,266.75753 355.26993,247.19266 Z"
     inkscape:connector-curvature="0" /></g>






</g>
</svg>