<?xml version="1.0" encoding="UTF-8" standalone="no"?>
<!-- Generator: Adobe Illustrator 15.0.2, SVG Export Plug-In  -->

<svg
   xmlns:dc="http://purl.org/dc/elements/1.1/"
   xmlns:cc="http://creativecommons.org/ns#"
   xmlns:rdf="http://www.w3.org/1999/02/22-rdf-syntax-ns#"
   xmlns:svg="http://www.w3.org/2000/svg"
   xmlns="http://www.w3.org/2000/svg"
   xmlns:sodipodi="http://sodipodi.sourceforge.net/DTD/sodipodi-0.dtd"
   xmlns:inkscape="http://www.inkscape.org/namespaces/inkscape"
   version="1.1"
   x="0px"
   y="0px"
   width="256"
   height="251"
   viewBox="-0.567 -0.567 256 251"
   overflow="visible"
   enable-background="new -0.567 -0.567 256 256"
   xml:space="preserve"
   id="svg891"
   sodipodi:docname="pp-rasta.svg"
   inkscape:export-filename="/home/peppe/Scaricati/pp-rasta.png"
   inkscape:export-xdpi="135.00002"
   inkscape:export-ydpi="135.00002"
   inkscape:version="0.92.4 (5da689c313, 2019-01-14)"
   style="overflow:visible"><metadata
   id="metadata895"><rdf:RDF><cc:Work
       rdf:about=""><dc:format>image/svg+xml</dc:format><dc:type
         rdf:resource="http://purl.org/dc/dcmitype/StillImage" /><dc:title></dc:title></cc:Work></rdf:RDF></metadata><sodipodi:namedview
   pagecolor="#ffffff"
   bordercolor="#666666"
   borderopacity="1"
   objecttolerance="10"
   gridtolerance="10"
   guidetolerance="10"
   inkscape:pageopacity="0"
   inkscape:pageshadow="2"
   inkscape:window-width="1920"
   inkscape:window-height="1016"
   id="namedview893"
   showgrid="false"
   inkscape:zoom="2.3781032"
   inkscape:cx="136.33681"
   inkscape:cy="99.44641"
   inkscape:window-x="0"
   inkscape:window-y="27"
   inkscape:window-maximized="1"
   inkscape:current-layer="svg891"
   scale-x="0.8"
   borderlayer="true" />
<defs
   id="defs875">
<inkscape:perspective
   id="perspective9"
   inkscape:persp3d-origin="413.38582 : 389.76377 : 1"
   inkscape:vp_z="826.77164 : 584.64566 : 1"
   inkscape:vp_y="0 : 1111.1111 : 0"
   inkscape:vp_x="0 : 584.64566 : 1"
   sodipodi:type="inkscape:persp3d" /></defs>
<g
   id="g2371"
   transform="matrix(0.28444444,0,0,0.41833333,-0.566998,-0.566999)"><path
     id="path2354"
     d="M 0,0 H 900 V 600 H 0 Z"
     inkscape:connector-curvature="0"
     style="fill:#da121a" /><path
     id="path2356"
     d="M 0,0 H 900 V 400 H 0 Z"
     inkscape:connector-curvature="0"
     style="fill:#fcdd09" /><path
     id="path2358"
     d="M 0,0 H 900 V 200 H 0 Z"
     inkscape:connector-curvature="0"
     style="fill:#078930" /></g>

<g
   id="g889"
   style="fill:#000000"
   transform="translate(0,-5)">
	<g
   id="g887"
   style="fill:#000000">
		
	</g>
</g>
<g
   id="g883"
   style="fill:#000000"
   transform="translate(-0.125,-2.6265)">
	<g
   id="g881"
   style="fill:#000000">
		<path
   d="M 127.561,8.504 C 61.805,8.504 8.503,61.806 8.503,127.56 c 0,65.752 53.302,119.052 119.058,119.055 65.75,0 119.052,-53.303 119.052,-119.055 0,-65.754 -53.302,-119.056 -119.052,-119.056 z m 0,221.102 c -56.357,0 -102.048,-45.688 -102.048,-102.045 0,-56.361 45.691,-102.048 102.048,-102.048 56.362,0 102.046,45.688 102.046,102.048 -0.001,56.358 -45.684,102.045 -102.046,102.045 z"
   id="path879"
   style="fill:#000000"
   inkscape:connector-curvature="0" />
	</g>
</g><path
   inkscape:connector-curvature="0"
   d="m 164.2313,121.80254 h 1.76983 v 0.9991 h -1.76983 z m 0.0324,9.33022 c 0.54333,-3.26378 0.74682,-7.72235 0.38102,-7.72235 -0.0941,0 -0.47116,0.19201 -0.83788,0.42669 -0.8802,0.56327 -3.15804,1.76912 -3.34186,1.76912 -0.0797,0 -0.18916,-0.0792 -0.24332,-0.17595 -0.0831,-0.14853 -0.2647,-0.0917 -1.16491,0.36437 -0.93358,0.473 -1.09906,0.52287 -1.32818,0.40024 -0.22587,-0.12088 -0.37936,-0.0837 -1.12006,0.27126 -0.94269,0.45177 -1.05567,0.47455 -1.37256,0.27664 -0.17627,-0.11008 -0.30796,-0.0811 -0.72074,0.1586 -0.81968,0.476 -1.00485,0.50158 -1.09285,0.15098 -0.0415,-0.16529 -0.10822,-0.2826 -0.14831,-0.2607 -0.68675,0.37525 -1.33437,0.59448 -1.80641,0.61152 -0.65757,0.0237 -1.33932,0.22176 -3.04123,0.88338 -0.65567,0.2549 -1.21595,0.43961 -1.24508,0.41049 -0.13692,-0.13692 0.1728,-0.44795 1.3292,-1.33483 0.68836,-0.52792 1.34928,-1.0498 1.46871,-1.15973 0.11943,-0.10993 0.3457,-0.28904 0.50282,-0.39802 0.15764,-0.10934 0.28713,-0.31473 0.28892,-0.45823 0.003,-0.20009 0.15813,-0.33749 0.6747,-0.59568 0.42349,-0.21166 0.62,-0.3674 0.53211,-0.42172 -0.26298,-0.16253 -0.005,-0.43383 0.64192,-0.67601 0.35635,-0.13333 0.74997,-0.24242 0.87472,-0.24242 0.25884,0 0.27287,-0.0447 0.10976,-0.34945 -0.10272,-0.19193 -0.0568,-0.23575 0.3756,-0.35812 0.27095,-0.0767 0.78934,-0.14388 1.15197,-0.14931 0.61243,-0.009 0.65495,-0.0273 0.59782,-0.2555 -0.0573,-0.22899 -0.004,-0.25076 0.78528,-0.32162 0.47153,-0.0423 1.01784,-0.0253 1.2328,0.0383 0.30926,0.0916 0.37414,0.0834 0.32633,-0.0412 -0.0946,-0.24662 0.5115,-0.30787 2.34865,-0.23732 l 1.67732,0.0644 -1.15569,-0.40934 c -1.09398,-0.38748 -3.57646,-1.15703 -4.65512,-1.44306 -0.27206,-0.0721 -0.47534,-0.16774 -0.45172,-0.21245 0.0857,-0.16213 -0.33502,-0.42879 -0.72974,-0.46258 -0.22227,-0.019 -0.85429,-0.11454 -1.40449,-0.21225 -0.84028,-0.14923 -1.01336,-0.21768 -1.08155,-0.42769 -0.0446,-0.13751 -0.0752,-0.30681 -0.0678,-0.37623 0.007,-0.0694 -0.43742,-0.22082 -0.98844,-0.33646 -1.06714,-0.22395 -1.48877,-0.48918 -1.37041,-0.86209 0.0545,-0.17182 -0.008,-0.23031 -0.31191,-0.29101 -1.0595,-0.2117 -1.5741,-0.41746 -1.76224,-0.70459 -0.1849,-0.2822 -0.18466,-0.31225 0.004,-0.52084 0.1708,-0.18873 0.17423,-0.22136 0.0232,-0.22136 -0.0974,0 -0.55044,-0.0843 -1.00677,-0.18737 -0.6217,-0.1404 -0.87478,-0.25621 -1.00963,-0.46202 -0.16876,-0.25756 -0.16296,-0.2888 0.0932,-0.5022 0.15024,-0.12515 0.23415,-0.23578 0.18648,-0.24584 -0.0477,-0.0101 -0.12568,-0.0254 -0.17335,-0.0341 -0.49353,-0.0899 -1.91027,-0.72596 -2.12414,-0.95362 -0.26646,-0.28364 -0.26793,-0.29595 -0.0539,-0.45243 0.21627,-0.15814 0.21627,-0.16216 0,-0.2374 -0.5842,-0.20327 -1.27233,-0.5352 -1.45812,-0.70334 -0.221,-0.2 -0.28226,-0.61331 -0.0909,-0.61331 0.30851,0 0.0465,-0.20132 -0.57646,-0.44286 -0.38061,-0.14759 -0.80093,-0.4068 -0.93405,-0.57603 l -0.24203,-0.3077 0.24201,-0.16069 c 0.23134,-0.15361 0.20761,-0.1808 -0.53786,-0.61643 -0.84652,-0.49468 -0.98097,-0.63159 -0.89432,-0.91066 0.0368,-0.11839 -0.0533,-0.23311 -0.25528,-0.32513 -0.49032,-0.22341 -1.20163,-0.82891 -1.16713,-0.99354 0.0457,-0.21836 -1.2914,-1.25054 -2.67561,-2.06538 -0.90555,-0.53306 -1.14152,-0.7183 -0.95074,-0.74633 0.13957,-0.0205 0.52558,0.0508 0.8578,0.15851 0.70807,0.22953 3.05754,1.15848 3.34422,1.32226 0.10872,0.0621 0.27232,0.0843 0.36356,0.0493 0.0912,-0.035 0.49633,0.10847 0.90022,0.31885 0.4039,0.21038 0.77336,0.40022 0.82103,0.42187 0.0477,0.0216 0.0867,-0.043 0.0867,-0.14363 0,-0.10064 0.0286,-0.18299 0.0635,-0.18299 0.14369,0 0.83196,0.40096 1.24348,0.72439 0.43015,0.33809 0.44172,0.34038 0.50465,0.0997 0.0354,-0.13546 0.10557,-0.24628 0.1559,-0.24628 0.13868,0 1.35553,1.01504 1.41763,1.18252 0.031,0.0836 0.10991,0.007 0.18377,-0.17909 l 0.12945,-0.32561 0.3755,0.2652 c 0.20652,0.14586 0.6201,0.50852 0.91907,0.8059 l 0.54358,0.5407 0.1299,-0.39362 c 0.0714,-0.21648 0.15758,-0.39361 0.19141,-0.39361 0.11517,0 1.36383,1.17821 1.72899,1.63143 l 0.36382,0.45155 0.12134,-0.34808 c 0.0667,-0.19144 0.17009,-0.34808 0.22967,-0.34808 0.15709,0 1.52219,1.48489 1.63273,1.77601 0.0907,0.23883 0.0981,0.23662 0.24094,-0.0714 0.0811,-0.1748 0.21106,-0.31781 0.28891,-0.31781 0.17555,0 1.55315,1.45849 1.55951,1.65108 0.003,0.0771 0.0822,-0.003 0.17704,-0.17758 0.0948,-0.1748 0.21119,-0.31781 0.25859,-0.31781 0.12145,0 1.22634,1.27118 1.50928,1.73643 l 0.23548,0.38722 0.1181,-0.31063 c 0.065,-0.17085 0.16562,-0.31063 0.2237,-0.31063 0.1324,0 1.51661,1.82269 1.52218,2.00436 0.002,0.0735 0.0673,0.0201 0.14446,-0.11877 0.0772,-0.13884 0.17463,-0.26885 0.21651,-0.28892 0.0916,-0.0439 1.43394,1.67242 1.68243,2.15119 0.17477,0.33674 0.17647,0.33721 0.31103,0.0858 0.13378,-0.24997 0.13995,-0.24793 0.54804,0.18147 0.227,0.23886 0.62266,0.70523 0.87923,1.03638 0.49762,0.64227 1.90315,1.98852 2.56892,2.46059 l 0.40293,0.28569 -0.25847,-0.36298 c -0.14216,-0.19964 -0.25847,-0.39682 -0.25847,-0.43816 0,-0.0413 -0.20405,-0.37566 -0.45345,-0.74292 -0.46954,-0.69143 -1.32467,-1.58661 -2.73297,-2.86098 -0.44949,-0.40675 -0.88404,-0.90746 -0.96565,-1.11269 -0.1355,-0.34072 -0.34157,-0.53457 -1.59389,-1.49927 -0.33935,-0.26142 -0.72588,-0.77651 -0.72588,-0.96733 0,-0.0245 0.091,-0.0473 0.20224,-0.0506 0.1622,-0.005 0.1457,-0.0449 -0.0833,-0.20225 -0.97727,-0.67136 -1.90229,-1.44172 -2.03248,-1.69265 -0.13113,-0.25275 -0.12546,-0.30642 0.0422,-0.40027 0.10652,-0.0596 0.1681,-0.12963 0.13684,-0.15561 -0.0312,-0.026 -0.42086,-0.29896 -0.8658,-0.60662 -1.02852,-0.7112 -1.46815,-1.21258 -1.06323,-1.21258 0.0826,0 0.20949,-0.0593 0.28192,-0.13168 0.0985,-0.0985 -0.0339,-0.23886 -0.52584,-0.55738 -0.62811,-0.40667 -1.40871,-1.17284 -1.40871,-1.38267 0,-0.0545 0.13001,-0.13165 0.28892,-0.17153 0.15891,-0.0399 0.28892,-0.11452 0.28892,-0.16585 0,-0.0513 -0.31735,-0.32324 -0.70523,-0.60424 -0.38788,-0.281 -0.7772,-0.65008 -0.86517,-0.82018 -0.15412,-0.29805 -0.1474,-0.31204 0.18518,-0.38508 0.44104,-0.0969 0.43478,-0.18725 -0.0305,-0.44022 -0.49995,-0.27182 -1.59216,-1.25642 -1.59044,-1.43373 8e-4,-0.0774 0.1353,-0.21094 0.29899,-0.2967 l 0.29761,-0.15594 -0.47651,-0.31534 c -0.58154,-0.38484 -1.38997,-1.10493 -1.38997,-1.23808 0,-0.0536 0.19768,-0.15671 0.4393,-0.2291 l 0.4393,-0.13162 -1.01714,-1.00273 c -0.55943,-0.5515 -1.01715,-1.08664 -1.01715,-1.1892 0,-0.12156 0.14061,-0.21284 0.40394,-0.26225 l 0.40395,-0.0758 -0.7313,-0.717166 c -0.91091,-0.893312 -1.00512,-1.103531 -0.53652,-1.197249 0.1894,-0.03788 0.34436,-0.08811 0.34436,-0.111629 0,-0.02352 -0.25507,-0.359301 -0.56683,-0.746189 -0.58291,-0.723388 -0.78471,-1.145481 -0.54914,-1.1486 0.0735,-9.97e-4 0.20998,-0.05005 0.30328,-0.109062 0.14409,-0.09113 0.13449,-0.138747 -0.0637,-0.316045 -0.38011,-0.339999 -0.85712,-1.02503 -0.85712,-1.230887 0,-0.128799 0.0978,-0.191337 0.2992,-0.191337 h 0.29919 l -0.30472,-0.362137 c -0.3605,-0.428431 -0.75594,-1.173645 -0.75594,-1.424573 0,-0.09899 0.0993,-0.177958 0.22389,-0.177958 0.20958,0 0.20219,-0.04785 -0.11557,-0.748658 -0.34783,-0.767107 -0.44482,-1.294769 -0.21151,-1.150573 0.0852,0.05268 0.10305,5.98e-4 0.0533,-0.155975 -0.041,-0.129279 -0.17326,-0.590844 -0.29384,-1.025699 -0.12058,-0.434855 -0.53464,-1.477095 -0.92012,-2.316087 -0.38548,-0.838994 -0.70087,-1.562136 -0.70087,-1.606982 0,-0.230159 0.58141,0.513924 1.58276,2.025593 0.61377,0.926571 1.23202,1.79475 1.37388,1.92929 0.14186,0.134538 0.39679,0.538152 0.56652,0.89692 0.16972,0.358768 0.35883,0.621257 0.42023,0.583309 0.0614,-0.03795 0.19143,-0.0028 0.28894,0.07815 0.21702,0.180111 0.67406,1.077595 0.78712,1.545657 l 0.0831,0.34387 0.20532,-0.272207 0.20533,-0.272208 0.18043,0.257606 c 0.0992,0.141684 0.27594,0.564042 0.39267,0.938576 0.21131,0.678017 0.33877,0.799099 0.58354,0.554333 0.0707,-0.07074 0.17883,-0.09758 0.2402,-0.05965 0.16744,0.103486 0.51987,0.887603 0.59425,1.322139 l 0.0655,0.382683 0.27434,-0.25606 c 0.2663,-0.248548 0.27808,-0.249603 0.4015,-0.03598 0.25697,0.444817 0.63894,1.469399 0.71448,1.91653 l 0.0777,0.459873 0.25577,-0.240287 c 0.14068,-0.132157 0.31326,-0.240286 0.38352,-0.240286 0.13583,0 0.49298,1.391697 0.49298,1.92095 v 0.315145 l 0.29824,-0.280175 c 0.28866,-0.271178 0.30335,-0.27318 0.45753,-0.06232 0.0876,0.119817 0.19205,0.43625 0.23208,0.703175 0.10885,0.72585 0.21693,0.85071 0.5082,0.58711 0.1314,-0.11891 0.26309,-0.19201 0.29266,-0.16245 0.12093,0.12093 0.61683,1.57768 0.69264,2.0347 0.0448,0.27014 0.11256,0.49116 0.15055,0.49116 0.038,0 0.18923,-0.11288 0.3361,-0.25085 0.14686,-0.13797 0.2995,-0.21838 0.33919,-0.17868 0.12082,0.12082 0.38729,1.38416 0.38921,1.84525 0.002,0.46016 0.11339,0.54333 0.34851,0.26003 0.0791,-0.0953 0.18548,-0.17335 0.23632,-0.17335 0.12473,0 0.3214,0.62098 0.49561,1.56485 0.13323,0.72189 0.15762,0.76501 0.33328,0.58935 0.10425,-0.10425 0.21369,-0.18954 0.24321,-0.18954 0.11117,0 0.69252,1.93214 0.75963,2.52467 l 0.07,0.61779 0.31813,-0.25082 c 0.23714,-0.18697 0.33044,-0.21185 0.36649,-0.0977 0.0266,0.0842 0.21281,0.66027 0.4138,1.28015 0.20098,0.61989 0.4001,1.3658 0.44248,1.65759 l 0.0771,0.53053 0.31228,-0.2459 0.31227,-0.2459 0.11411,0.43741 c 0.27836,1.06702 0.46095,1.86023 0.53298,2.3154 0.077,0.48668 0.20024,0.61197 0.35523,0.3612 0.10304,-0.16673 0.3083,0.41827 0.73494,2.09464 0.30662,1.20481 0.93259,2.88695 1.52672,4.10269 l 0.22591,0.46227 -0.0534,-0.92455 c -0.0302,-0.52287 -0.18015,-1.32622 -0.34506,-1.8491 -0.16038,-0.5085 -0.37169,-1.31459 -0.46958,-1.79131 -0.15467,-0.75329 -0.15618,-0.88318 -0.0115,-0.99213 0.10415,-0.0785 0.12568,-0.16612 0.0575,-0.23427 -0.10695,-0.10695 -0.92318,-2.38211 -0.92318,-2.57327 0,-0.0537 0.12485,-0.0737 0.27745,-0.0446 l 0.27744,0.053 -0.44486,-1.10547 c -0.24468,-0.60801 -0.47933,-1.28916 -0.52145,-1.51367 -0.0718,-0.38256 -0.0576,-0.4082 0.22521,-0.4082 0.16598,0 0.30178,-0.0163 0.30178,-0.0362 0,-0.0199 -0.1268,-0.29899 -0.28177,-0.62023 -0.25741,-0.53358 -0.64278,-1.79564 -0.64278,-2.10505 0,-0.0703 0.16158,-0.12778 0.35907,-0.12778 0.29736,0 0.34444,-0.0348 0.27394,-0.20225 -0.28218,-0.67035 -0.74813,-1.95958 -0.80993,-2.24094 -0.0694,-0.31588 -0.0542,-0.33046 0.34406,-0.33046 h 0.41664 l -0.16349,-0.31781 c -0.19668,-0.38233 -0.65143,-1.83198 -0.65143,-2.07664 0,-0.12847 0.0925,-0.16073 0.35167,-0.12268 0.28804,0.0423 0.33689,0.0185 0.26999,-0.13134 -0.16787,-0.376 -0.60184,-1.69916 -0.67995,-2.07312 l -0.081,-0.387751 0.49152,0.08304 c 0.45047,0.0761 0.48376,0.06505 0.39862,-0.1323 -0.29184,-0.676475 -0.52452,-1.486758 -0.59212,-2.061962 l -0.077,-0.65492 0.41309,0.07749 0.41308,0.07749 -0.27787,-0.675823 c -0.15283,-0.371702 -0.27911,-0.851343 -0.28062,-1.065868 -0.003,-0.375075 0.011,-0.387288 0.35616,-0.318264 0.30453,0.06091 0.34753,0.04217 0.28388,-0.12371 -0.52124,-1.358332 -0.51847,-1.727381 0.0126,-1.674036 l 0.36294,0.03646 -0.17487,-0.498734 c -0.0962,-0.274302 -0.18227,-0.758761 -0.19133,-1.076575 l -0.0165,-0.577843 0.44493,0.02678 c 0.38291,0.02304 0.43294,-0.0011 0.35888,-0.173354 -0.0473,-0.110071 -0.11105,-0.688191 -0.14159,-1.284713 l -0.0555,-1.084587 0.41802,0.07842 c 0.4125,0.07739 0.41651,0.07444 0.30339,-0.223085 -0.14149,-0.372148 -0.14675,-1.212474 -0.009,-1.430095 0.0562,-0.08871 0.18539,-0.12935 0.28715,-0.0903 0.15673,0.06014 0.18502,-0.03301 0.18502,-0.609334 0,-0.777131 0.0762,-1.053881 0.26959,-0.979409 0.0957,0.03686 0.12321,-0.136333 0.0947,-0.596533 -0.0381,-0.613852 -0.0273,-0.644364 0.20224,-0.571509 0.22263,0.07066 0.2425,0.03279 0.2425,-0.462309 0,-0.2966 0.0726,-0.703151 0.16141,-0.903445 0.0888,-0.200295 0.22157,-0.910234 0.29509,-1.577644 0.15462,-1.403506 0.44082,-3.483535 0.54859,-3.98712 l 0.0742,-0.346706 0.0845,0.288922 c 0.0464,0.158907 0.0896,0.936242 0.096,1.727411 0.014,1.74524 0.22849,4.082097 0.38376,4.180558 0.0622,0.03946 0.095,0.363958 0.0727,0.721101 -0.0367,0.589618 -0.0207,0.643057 0.17457,0.580928 0.19974,-0.06356 0.21202,-0.0024 0.17278,0.861587 -0.0397,0.873637 -0.0282,0.928646 0.18947,0.907501 0.20868,-0.02027 0.23168,0.04641 0.23146,0.6709 -9e-5,0.381377 -0.0433,0.812458 -0.0959,0.957958 -0.0882,0.243898 -0.071,0.258366 0.21983,0.185363 l 0.31548,-0.07918 -0.0612,0.980766 c -0.0337,0.539421 -0.12291,1.096082 -0.19834,1.237022 -0.13237,0.247344 -0.12281,0.253567 0.27499,0.178941 l 0.41212,-0.07731 v 0.44995 c 0,0.425308 -0.20462,1.340059 -0.40572,1.813808 -0.0931,0.219429 -0.001,0.216581 0.62532,-0.01933 0.13205,-0.04974 0.15032,0.07538 0.0993,0.680378 -0.0344,0.40773 -0.14222,0.968514 -0.23969,1.246188 l -0.17723,0.50486 0.40173,-0.06519 c 0.27651,-0.04487 0.42012,-0.01727 0.46073,0.08854 0.0508,0.132302 -0.29742,1.287424 -0.58955,1.955818 -0.084,0.192111 -0.0549,0.206647 0.26999,0.135278 0.35303,-0.07754 0.36405,-0.06798 0.36405,0.31562 0,0.461648 -0.36231,1.572295 -0.69914,2.143182 -0.2829,0.479479 -0.23686,0.551289 0.24559,0.383099 l 0.36722,-0.128012 -0.0554,0.576232 c -0.0305,0.31692 -0.216,0.9003 -0.41232,1.29639 -0.19632,0.39609 -0.34121,0.7359 -0.32198,0.75513 0.0192,0.0192 0.17405,-0.0179 0.34404,-0.0826 0.65877,-0.25046 0.50818,0.54681 -0.48712,2.57907 -0.0266,0.0544 0.11376,0.0633 0.31198,0.0197 0.34741,-0.0763 0.36033,-0.0653 0.35845,0.30563 -10e-4,0.21163 -0.18221,0.82683 -0.40254,1.36711 -0.22033,0.54028 -0.40148,0.99534 -0.40255,1.01123 -0.001,0.0159 0.1322,0.0289 0.29616,0.0289 0.27528,0 0.29213,0.0287 0.22007,0.3756 -0.0429,0.20658 -0.25508,0.74858 -0.47146,1.20444 -0.21638,0.45586 -0.39342,0.85404 -0.39342,0.88484 0,0.0308 0.10401,0.0288 0.23114,-0.004 0.36417,-0.0952 0.29644,0.4724 -0.17336,1.45269 -0.22246,0.46422 -0.40449,0.86679 -0.40449,0.8946 0,0.0278 0.13002,0.0179 0.28893,-0.0219 0.23975,-0.0602 0.28892,-0.031 0.28892,0.17116 0,0.13401 0.052,0.24366 0.11557,0.24366 0.0636,0 0.11557,-0.26003 0.11557,-0.57784 0,-0.42607 0.0437,-0.57784 0.16653,-0.57784 0.0916,0 0.19867,0.052 0.23796,0.11556 0.17631,0.28528 0.39188,0.10427 0.37851,-0.31781 -0.0163,-0.51269 0.14273,-2.24519 0.21728,-2.36787 0.0285,-0.047 0.17128,-0.007 0.31722,0.0884 l 0.26532,0.17386 0.0689,-1.13126 c 0.0776,-1.27304 0.15569,-1.57274 0.38562,-1.47925 0.0871,0.0354 0.22503,0.0916 0.30643,0.12485 0.10992,0.0449 0.18592,-0.25903 0.29549,-1.18153 0.0811,-0.68306 0.17391,-1.26834 0.20618,-1.30061 0.0323,-0.0323 0.20439,0.025 0.38249,0.12718 l 0.32382,0.18584 0.0775,-0.93921 c 0.0426,-0.51657 0.1306,-1.13808 0.19554,-1.38115 l 0.11808,-0.44195 0.38249,0.29174 0.3825,0.29175 0.0738,-0.62772 c 0.0968,-0.82375 0.28538,-1.68888 0.41285,-1.89417 0.0868,-0.13972 0.14655,-0.13501 0.40076,0.0315 l 0.29878,0.19577 6e-4,-0.436049 c 4e-4,-0.239825 0.0552,-0.644069 0.12187,-0.898321 0.21392,-0.815775 0.20531,-0.804104 0.43794,-0.593574 0.32293,0.292247 0.47966,0.228161 0.47966,-0.196132 0,-0.499338 0.24024,-1.695021 0.34057,-1.695021 0.0426,0 0.17848,0.07636 0.30186,0.169678 0.33284,0.251742 0.35841,0.226715 0.3801,-0.371924 0.0223,-0.615336 0.32234,-1.762423 0.461,-1.762423 0.0496,0 0.19121,0.07636 0.31459,0.169679 0.32265,0.244042 0.3976,0.217551 0.39833,-0.140786 9e-4,-0.424873 0.19586,-1.075234 0.40435,-1.348615 0.15957,-0.209225 0.18148,-0.21068 0.38599,-0.0256 0.20834,0.188544 0.21951,0.176569 0.28569,-0.306274 0.0379,-0.276369 0.12395,-0.647353 0.19127,-0.82441 0.11882,-0.312529 0.13077,-0.316431 0.40956,-0.133762 0.27879,0.182672 0.28716,0.179935 0.28716,-0.09385 0,-0.155103 0.10584,-0.528918 0.2352,-0.830699 0.17899,-0.417568 0.26737,-0.516523 0.36982,-0.414072 0.19898,0.198979 0.31953,0.164045 0.31953,-0.09259 0,-0.12497 0.0878,-0.411392 0.19517,-0.636493 0.1463,-0.306786 0.24759,-0.392638 0.40449,-0.342839 0.13354,0.04238 0.20933,0.0083 0.20933,-0.09425 0,-0.08838 0.22526,-0.520933 0.50057,-0.96123 0.7958,-1.272667 1.46409,-2.424572 1.46409,-2.523597 0,-0.178243 0.85872,-1.479235 0.8982,-1.360803 0.0481,0.144311 -0.20225,1.00024 -0.54193,1.852816 -0.38519,0.966797 -1.06347,3.652901 -0.93343,3.696509 0.1851,0.06207 0.13273,0.513231 -0.11625,1.001596 -0.27647,0.542279 -0.274,0.520059 -0.0578,0.520059 0.29753,0 0.21115,0.307049 -0.5004,1.778733 -0.0274,0.05664 0.087,0.06865 0.25419,0.02669 0.27618,-0.06932 0.30399,-0.04549 0.30399,0.260478 0,0.185226 -0.19877,0.732278 -0.44171,1.215672 l -0.4417,0.8789 h 0.32614 c 0.26715,0 0.32613,0.05013 0.32613,0.277186 0,0.305719 -0.55446,1.424393 -0.98829,1.993985 -0.29486,0.387124 -0.225,0.502477 0.30433,0.502477 0.48108,0 0.22027,0.592523 -0.66131,1.502396 l -0.61587,0.63562 0.40065,0.11731 0.40064,0.11731 -0.2399,0.40275 c -0.13194,0.22151 -0.50325,0.67273 -0.82514,1.00271 l -0.58525,0.59995 0.3107,0.078 c 0.43904,0.11019 0.31767,0.42588 -0.45661,1.18771 -0.34462,0.33908 -0.62658,0.63811 -0.62658,0.66452 0,0.0264 0.10752,0.048 0.23893,0.048 0.45336,0 0.0661,0.73478 -0.71158,1.3502 l -0.47237,0.37379 0.29916,0.0751 c 0.16454,0.0413 0.29916,0.12487 0.29916,0.18572 0,0.13931 -0.23779,0.59639 -0.35026,0.67328 -0.0465,0.0318 -0.3314,0.28602 -0.63313,0.56497 -0.4642,0.42916 -0.51953,0.52345 -0.35968,0.61291 0.28044,0.15694 0.0744,0.47077 -0.94421,1.43793 -0.78393,0.74435 -0.84424,0.83213 -0.62048,0.90315 0.23224,0.0737 0.23723,0.0992 0.0792,0.40475 -0.0927,0.17934 -0.50838,0.62437 -0.92363,0.98895 -0.76987,0.67591 -0.89573,0.86578 -0.57388,0.86578 0.35537,0 0.0386,0.51271 -0.88393,1.43078 -0.50335,0.50089 -0.91517,0.92994 -0.91517,0.95344 0,0.0235 0.078,0.0427 0.17335,0.0427 0.19723,0 0.23214,0.18117 0.0559,0.29009 -0.0646,0.0399 -0.0906,0.11606 -0.0577,0.16919 0.0328,0.0531 -0.35317,0.44501 -0.85779,0.87085 -0.50461,0.42583 -0.96761,0.91183 -1.02888,1.07999 -0.0613,0.16816 -0.50433,0.7738 -0.98459,1.34586 -1.15026,1.37015 -3.16353,4.32912 -2.55555,3.75599 1.19048,-1.12226 2.30744,-2.35344 2.83629,-3.12633 0.79469,-1.1614 0.89093,-1.25662 1.04517,-1.03415 0.0877,0.12655 0.13567,0.13538 0.17754,0.0327 0.20055,-0.49189 0.75825,-1.40489 1.25409,-2.05307 0.48061,-0.62826 0.59944,-0.72602 0.70615,-0.58097 0.17459,0.2373 0.23955,0.21978 0.31749,-0.0856 0.0365,-0.14302 0.27749,-0.54004 0.53553,-0.88229 0.25804,-0.34224 0.51981,-0.70628 0.58171,-0.80898 0.10192,-0.16911 0.12817,-0.16656 0.27822,0.027 0.15473,0.1996 0.18469,0.17669 0.45351,-0.34671 0.15831,-0.30823 0.44633,-0.74244 0.64003,-0.96491 0.35833,-0.41155 0.40586,-0.4073 0.64595,0.0578 0.0356,0.069 0.0872,0.0563 0.12788,-0.0313 0.0601,-0.12946 1.26877,-1.85191 1.39269,-1.98475 0.0263,-0.0282 0.15876,0.0595 0.29423,0.19496 l 0.24633,0.24632 0.24163,-0.44653 c 0.2662,-0.49193 1.03456,-1.388 1.19018,-1.388 0.0543,0 0.16109,0.16534 0.23737,0.36741 l 0.13868,0.36741 0.32003,-0.47371 c 0.39095,-0.57867 1.15884,-1.41679 1.29807,-1.41679 0.0561,0 0.16202,0.18202 0.23544,0.40449 0.14749,0.4469 0.29524,0.51757 0.39895,0.19083 0.0732,-0.23059 1.7098,-1.75101 1.88482,-1.75101 0.0583,0 0.17116,0.14285 0.25071,0.31744 0.14428,0.31665 0.14511,0.31685 0.33741,0.0794 0.26201,-0.32357 1.64522,-1.32136 1.83177,-1.32136 0.0826,0 0.15023,0.0953 0.15023,0.21188 0,0.34815 0.12383,0.36821 0.42345,0.0686 0.28379,-0.28379 1.31285,-0.85831 1.53738,-0.85831 0.0657,0 0.11941,0.0861 0.11941,0.19126 0,0.17232 0.02,0.17379 0.20224,0.0148 0.30595,-0.26686 0.74665,-0.47419 1.06901,-0.50291 0.15891,-0.0142 1.01701,-0.34783 1.90689,-0.74148 2.06847,-0.91501 2.13806,-0.94165 2.13806,-0.81851 0,0.0562 -0.35104,0.37765 -0.78008,0.71436 -1.12007,0.87903 -2.4008,2.1002 -2.38171,2.27096 0.0199,0.1779 -0.7942,0.89542 -1.33283,1.17474 -0.38956,0.202 -0.39044,0.20429 -0.1444,0.37662 0.23628,0.1655 0.2382,0.18184 0.0421,0.35931 -0.113,0.10226 -0.50598,0.32351 -0.87329,0.49167 -0.60771,0.27822 -0.64905,0.31972 -0.45914,0.4609 0.3087,0.2295 0.0914,0.49552 -0.76003,0.93041 -0.87981,0.44939 -0.93077,0.4976 -0.67639,0.63995 0.42452,0.23758 -0.2226,0.76281 -1.46207,1.18669 -0.20227,0.0692 -0.20441,0.0895 -0.0298,0.28246 0.15302,0.16908 0.16135,0.24324 0.0446,0.39713 -0.1729,0.22794 -1.72878,1.00705 -2.01832,1.01067 -0.17264,0.002 -0.16176,0.0362 0.0681,0.21297 0.55502,0.42683 -0.0669,0.98238 -1.45817,1.30251 -0.63269,0.14558 -0.73436,0.24814 -0.42024,0.42393 0.38523,0.21559 -0.019,0.5537 -1.13557,0.94991 -1.55508,0.5518 -1.54222,0.54364 -1.2925,0.81959 0.19624,0.21683 0.19483,0.23573 -0.0347,0.46526 -0.15885,0.15885 -0.59886,0.31301 -1.30941,0.45875 -0.96197,0.19731 -1.36471,0.39955 -1.38009,0.69303 -0.002,0.0386 -0.45873,0.24095 -1.0149,0.44971 -0.55618,0.20877 -1.12218,0.49809 -1.25778,0.64294 -0.3406,0.36383 -0.80306,0.58357 -3.39386,1.61259 -1.23948,0.49229 -2.53963,1.04558 -2.88922,1.22952 -0.58069,0.30553 -0.60067,0.32842 -0.23114,0.26483 0.22247,-0.0383 0.93527,-0.21876 1.58399,-0.40106 1.72668,-0.48521 1.99864,-0.52552 1.99864,-0.29624 0,0.16883 0.0276,0.17097 0.26003,0.0201 0.20766,-0.13477 1.07598,-0.33369 1.99356,-0.4567 0.0636,-0.009 0.0986,0.10546 0.0779,0.25329 -0.0346,0.24747 -0.0165,0.25746 0.22908,0.12603 0.23688,-0.12677 1.75223,-0.56108 1.97547,-0.56618 0.0477,-10e-4 0.0867,0.10759 0.0867,0.24152 0,0.18431 0.0491,0.22466 0.20199,0.16599 0.41647,-0.15981 1.31578,-0.31275 1.47647,-0.25109 0.0948,0.0364 0.13696,0.1416 0.0977,0.24387 -0.0565,0.14724 -0.0195,0.16113 0.20419,0.0765 0.15027,-0.0568 0.55344,-0.1417 0.89592,-0.18855 l 0.6227,-0.0852 -0.0576,0.30127 -0.0576,0.30127 0.79282,-0.0737 c 0.7564,-0.0703 0.79282,-0.0623 0.79282,0.17405 0,0.22742 0.0606,0.24774 0.73836,0.24774 0.63227,0 0.73605,0.029 0.7223,0.20224 -0.009,0.11124 0.0494,0.18911 0.12929,0.17306 0.0799,-0.016 0.36597,0.0201 0.63563,0.0803 0.26966,0.0602 0.6719,0.14133 0.89387,0.18023 0.22196,0.0389 0.44557,0.14577 0.49691,0.2375 0.0513,0.0917 0.18565,0.16677 0.29848,0.16677 0.54836,0 2.98874,1.05692 3.18917,1.38121 0.0299,0.0483 -0.97834,0.0824 -2.24046,0.0756 -2.03369,-0.0109 -2.32032,0.0108 -2.51925,0.19001 -0.14878,0.13404 -0.41376,0.20224 -0.78577,0.20224 -0.41419,0 -0.63018,0.0647 -0.82412,0.24692 -0.22966,0.21575 -0.40248,0.24757 -1.3691,0.2521 -0.93864,0.004 -1.10176,0.0327 -1.07654,0.18647 0.0825,0.50349 -0.2993,0.57738 -1.46741,0.28396 -0.68762,-0.17272 -0.75538,-0.17228 -0.93371,0.006 -0.21681,0.21681 -0.64182,0.16856 -1.31937,-0.1498 -0.25204,-0.11843 -0.7094,-0.19116 -1.21348,-0.19298 -0.87955,-0.003 -2.97514,-0.57812 -5.894,-1.61708 -1.13006,-0.40224 -1.61202,-0.5208 -1.94475,-0.47841 -0.8141,0.10374 -0.91535,-0.25492 -0.99917,2.05899 -0.0807,2.22816 -0.36218,4.69773 -0.81805,7.17725 -0.56579,0.48288 -0.39745,-0.58434 -0.315,-1.09123 z m 1.33768,-8.89717 c -0.21228,-0.1378 -1.16534,-0.0833 -1.02351,0.0586 0.0614,0.0614 0.27007,0.10713 0.46372,0.10163 0.19364,-0.006 0.35208,0.0449 0.35208,0.11198 0,0.0742 0.07,0.0639 0.17882,-0.0264 0.14302,-0.1187 0.1488,-0.1679 0.0289,-0.24574 z m 1.45325,-6.80451 c 0.0965,-0.19349 0.20779,-0.59653 0.24724,-0.89566 l 0.0718,-0.54385 -0.33135,0.63562 c -0.18424,0.35342 -0.30992,0.75108 -0.28309,0.89566 0.0624,0.33625 0.0855,0.32907 0.29545,-0.0918 z m 0.87978,-3.34735 c 0.19895,0.10648 0.21749,0.0518 0.2527,-0.74582 0.0209,-0.47341 -0.005,-0.81703 -0.0586,-0.7636 -0.21399,0.21521 -0.84869,1.8356 -0.69605,1.77703 0.0947,-0.0363 0.16434,0.0249 0.1755,0.15436 0.0102,0.11804 0.0395,0.0455 0.0651,-0.16113 0.0404,-0.32528 0.0754,-0.36031 0.26132,-0.26084 z M 126.14,53.1695 c -14.248,0 -25.147,1.39 -33.31,3.194 V 40.4775 H 82.52 v 18.797 c -7.486,2.666 -10.512,5.196 -10.512,5.196 0,0 4.312,-0.361 10.512,0.131 v 97.745 c -2.418,4.448 -3.968,9.744 -3.968,16.141 0,17.646 8.528,33.511 8.528,33.511 0,0 -2.579,-9.919 -2.532,-16.853 0.152,-22.449 9.336,-34.371 48.93,-40.852 16.963,-2.775 69.205,-6.346 68.804,-45.406 -0.239,-23.587 -14.867,-55.718 -76.142,-55.718 z m -21.018,89.03 c -3.504,2.151 -7.999,4.748 -12.292,8.21 v -84.302 c 15.4,3.365 33.708,12.898 33.707,39.21 10e-4,10.663 -1.387,24.588 -21.415,36.882 z"
   style="fill:#000000;fill-opacity:1;fill-rule:nonzero;stroke:none;stroke-width:0.09971289"
   id="rect5798"
   sodipodi:nodetypes="ccccccscsccccccccccccscccccscccccccccccccccccccccscccccccccsccccsccccccccccssccscccccccscccsccsccscccsccccccccccsccccsccccccsccscssccsccccscccsccccsccccssccsscccsssccccccccccccccccccccsscccccccsccccscsscccccccccscccscsccccsccccsscssccsccscccccccccccccccccccccccccccscccscccccccccccccccccccscccccscccsccccssccccscscssccscsssscccccccccsccccccccccccccssscscccccccsccsccscsccccsccsccsscscccccccccsscccscccccccscsscccccccccccccccccccccccscccsccsccsscsscccsscccccccccccccccccsccccccccscccccscccccccccssccsccscccsccccccccccccccccsccccccccccccccccccscccccccsccccsccccc" /></svg>